<?xml version="1.0" encoding="UTF-8"?>
<svg id="Calque_1" data-name="Calque 1" xmlns="http://www.w3.org/2000/svg" viewBox="0 0 44.52 30.35">
  <defs>
    <style>
      .cls-1 {

      }

      .cls-1, .cls-2 {
        stroke: white;
        stroke-miterlimit: 10;
        stroke-width: 3px;
      }

      .cls-2 {

      }
    </style>
  </defs>
  <path class="cls-1" d="M29.35,15.17h7.09c3.91,0,7.09-3.17,7.09-7.09h0c0-3.91-3.17-7.09-7.09-7.09h-7.09s0,0,0,0c-7.83,0-14.17,6.35-14.17,14.17h0s-7.09,0-7.09,0c-3.91,0-7.09,3.17-7.09,7.09h0c0,3.91,3.17,7.09,7.09,7.09h7.09s0,0,0,0c7.83,0,14.17-6.35,14.17-14.17h0Z"/>
  <path class="cls-2" d="M29.35,15.17h7.09c3.91,0,7.09,3.17,7.09,7.09h0c0,3.91-3.17,7.09-7.09,7.09h-7.09s0,0,0,0c-7.83,0-14.17-6.35-14.17-14.17h0s-7.09,0-7.09,0c-3.91,0-7.09-3.17-7.09-7.09h0c0-3.91,3.17-7.09,7.09-7.09h7.09s0,0,0,0c7.83,0,14.17,6.35,14.17,14.17h0Z"/>
</svg>