<?xml version="1.0" encoding="iso-8859-1"?>
<!-- Uploaded to: SVG Repo, www.svgrepo.com, Generator: SVG Repo Mixer Tools -->
<svg height="800px" width="800px" version="1.1" id="Layer_1" xmlns="http://www.w3.org/2000/svg" xmlns:xlink="http://www.w3.org/1999/xlink" 
	 viewBox="0 0 512 512" xml:space="preserve">
<path style="fill:#FF9F19;" d="M456.348,512H55.652C24.968,512,0,487.032,0,456.348V55.652C0,24.968,24.968,0,55.652,0h400.696
	C487.032,0,512,24.968,512,55.652v400.696C512,487.032,487.032,512,456.348,512z"/>
<path style="fill:#F28618;" d="M456.348,0H256v512h200.348C487.032,512,512,487.032,512,456.348V55.652
	C512,24.968,487.032,0,456.348,0z"/>
<path style="fill:#FFDFB3;" d="M322.783,200.348c-4.336,0-8.608-1.695-11.804-4.892L256,140.478l-54.979,54.979
	c-4.783,4.783-11.979,6.206-18.196,3.62c-6.239-2.582-10.303-8.669-10.303-15.425V0h166.957v183.652
	c0,6.755-4.065,12.842-10.305,15.423C327.109,199.935,324.935,200.348,322.783,200.348z"/>
<path style="fill:#FFCC99;" d="M256,140.478l54.979,54.979c3.196,3.196,7.467,4.891,11.804,4.891c2.153,0,4.326-0.413,6.391-1.272
	c6.24-2.581,10.305-8.668,10.305-15.423V0H256V140.478z"/>
<path style="fill:#EDF0F2;" d="M428.522,445.217H294.957c-9.217,0-16.696-7.473-16.696-16.696v-66.783
	c0-9.223,7.479-16.696,16.696-16.696h133.565c9.217,0,16.696,7.473,16.696,16.696v66.783
	C445.217,437.744,437.739,445.217,428.522,445.217z"/>
<g>
	<path style="fill:#B37548;" d="M183.652,445.217H83.478c-9.217,0-16.696-7.473-16.696-16.696s7.479-16.696,16.696-16.696h100.174
		c9.217,0,16.696,7.473,16.696,16.696S192.869,445.217,183.652,445.217z"/>
	<path style="fill:#B37548;" d="M183.652,378.435H83.478c-9.217,0-16.696-7.473-16.696-16.696s7.479-16.696,16.696-16.696h100.174
		c9.217,0,16.696,7.473,16.696,16.696S192.869,378.435,183.652,378.435z"/>
</g>
</svg>